<svg version="1.2" xmlns="http://www.w3.org/2000/svg" viewBox="0 0 3365 2000" width="3365" height="2000">
	<title>8432-ai</title>
	<style>
		.s0 { fill: #eafcfc } 
		.s1 { opacity: .6;fill: #9bc1f9 } 
		.s2 { opacity: .3;mix-blend-mode: multiply;fill: #9bc1f9 } 
		.s3 { fill: #5183bf } 
		.s4 { fill: #3c8f7c } 
		.s5 { fill: #96d9c9 } 
		.s6 { fill: #50bfa5 } 
		.s7 { fill: #0e2e35 } 
		.s8 { fill: #e59f39 } 
		.s9 { fill: #eab054 } 
		.s10 { fill: #f7cc7f } 
		.s11 { fill: #f7a491 } 
		.s12 { fill: #f47458 } 
		.s13 { fill: #ffffff } 
		.s14 { fill: #184655 } 
		.s15 { opacity: .8;fill: #ffffff } 
	</style>
	<g id="_Artboards_">
	</g>
	<g id="Layer 1">
		<g id="&lt;Group&gt;">
			<g id="&lt;Group&gt;">
				<path id="&lt;Path&gt;" class="s0" d="m926.9 149.1c437.3-25.3 895.8 106.4 828.4 297.4-67.4 190.9 360.3-67.8 531 1 121.5 49 72.9 198.2 131.7 258.3 134.8 137.9 272.6-35.7 444.2 68.5 171.5 104.1 100.2 1078.1 30.3 1078l-2645.4-4.9-31.6 1.1c0 0-194-279.8-18.4-443.2 175.6-163.4 55-238.1 33.7-301.2-24.5-72.5-81.7-199.1 167.5-292.1 249.1-92.9 184.8-295.1 178.7-336.9-6.2-41.9-87.3-300.7 349.9-326z"/>
			</g>
			<path id="&lt;Path&gt;" class="s1" d="m2475.2 1847.7h-200.4v-1551.1h200.4z"/>
			<path id="&lt;Path&gt;" class="s1" d="m2195.4 1847.7h-200.4v-1078h200.4z"/>
			<path id="&lt;Path&gt;" class="s1" d="m2759.1 1847.7h-200.4v-1215.1h200.4z"/>
			<path id="&lt;Path&gt;" class="s1" d="m1915.5 1847.7h-200.4v-1262.8h200.4z"/>
			<path id="&lt;Path&gt;" class="s1" d="m1635.6 1847.7h-200.3v-888.4h200.3z"/>
			<g id="&lt;Group&gt;">
				<path id="&lt;Path&gt;" class="s2" d="m2475.2 1847.7h-200.4v-1193.6h200.4z"/>
				<path id="&lt;Path&gt;" class="s2" d="m2195.4 1847.7h-200.4v-829.5h200.4z"/>
				<path id="&lt;Path&gt;" class="s2" d="m2759.1 1847.7h-200.4v-935h200.4z"/>
				<path id="&lt;Path&gt;" class="s2" d="m1915.5 1847.7h-200.4v-971.8h200.4z"/>
				<path id="&lt;Path&gt;" class="s2" d="m1635.6 1847.7h-200.3v-683.7h200.3z"/>
			</g>
			<path id="&lt;Path&gt;" class="s3" d="m2856.5 308.4l-159.7 120.8 61 3.9-381.2 670.9-211.1-316.5-298.5 696.5-192.1-272.8-239.3 338.3 15 60.6 224.2-315.4 203 288.3 297.5-693.8 204.8 307 422-742.7 39.2 42.1z"/>
			<g id="&lt;Group&gt;">
				<path id="&lt;Path&gt;" class="s4" d="m1253 1399.2c-229.2-182.5-421.7-418.5-567.5-695.6q-157.6 126.6-315.2 253.1c168.6 320.5 391.2 593.4 656.2 804.3q113.2-180.9 226.5-361.8z"/>
				<path id="&lt;Path&gt;" class="s5" d="m636.2 769.7q-97.9 79.9-195.8 159.8c15.5 29 9.9 68.1-13.3 87.9 148.2 262 333.9 489.6 550.2 674.4 17.6-26.6 51-31.7 74.9-12.3q71.4-112.3 142.8-224.7c-22-17.9-25.1-54.4-7.5-80.9-189.9-162.2-352.9-362.1-483.1-592.2-23.1 19.8-53.9 14.7-68.2-12z"/>
				<g id="&lt;Group&gt;">
					<path id="&lt;Path&gt;" class="s6" d="m899.9 1368.7c48.9-63.2 48.5-156.3 2.3-212-46.3-55.6-125.3-58.2-180-2.1-54.6 56.1-59.9 155.8-7.8 218.4 51.9 62.6 136.7 58.7 185.5-4.3z"/>
					<path id="&lt;Compound Path&gt;" class="s4" d="m896.7 1189.5q-9.3 10.2-18.5 20.5c14.7 26.9 11.6 54.8-4.2 73-16.1 18.3-34 20-61.3 3.8-19.9-11.2-29.4-14.5-35.4-7.9-5.2 5.5-6.9 15.5 4 29.2 5.9 7.5 11.8 12.4 17 15.9 6.9 4.7 9.1 15.3 4.8 23.4-4.1 7.8-12.8 10.4-19.5 5.7-5.5-3.9-11.5-9.3-17.9-16.7q-8 8.9-16 17.7-8.3-10.5-16.6-21.1 8.7-9.4 17.4-18.8c-14.1-27.2-11.3-54.1 5-71.3 18-18.9 38.8-13.1 62.7 1.9 16.5 10.3 26.1 12 33 4.3 7.2-8 4.8-20.3-4.3-31.9-6.2-8-13.4-14-20.6-18.5-7-4.4-8.9-15.3-4.2-23.3q0.3-0.5 0.5-0.9c4.3-7.4 12.5-9.9 18.7-5.8 7.5 4.9 15.6 11.9 22.7 20.2q8.6-9.5 17.3-18.9 7.6 9.8 15.4 19.5z"/>
					<path id="&lt;Path&gt;" class="s6" d="m1080.4 1531.1c-52.2-44.7-102.5-92-150.8-142q-12.4 16.2-24.8 32.3c48.9 50.6 100 98.7 152.9 144q11.4-17.1 22.7-34.3z"/>
				</g>
			</g>
			<g id="&lt;Group&gt;">
				<path id="&lt;Path&gt;" class="s4" d="m1206.3 1325.6c-287.9-36.5-570.1-132.8-832-283.8q-74.7 174.9-149.3 349.9c302.7 174.6 629.1 286 961.9 328.2q9.7-197.2 19.4-394.3z"/>
				<path id="&lt;Path&gt;" class="s5" d="m363.9 1117.6q-45.8 109.7-91.5 219.4c27.6 15.6 41.8 49.3 31.5 76 256.5 137.9 528.7 230.8 806.5 275.1 2.3-29.4 28.7-49.2 58.9-45.1q7-122.9 14-245.8c-27.9-3.8-48.5-31.3-46.1-60.7-243.9-39-483-120.6-708.3-241.7-10.3 26.7-39.6 37.2-65 22.8z"/>
				<g id="&lt;Group&gt;">
					<path id="&lt;Path&gt;" class="s6" d="m885.3 1468.3c11.6-73.2-34.4-147-101.6-169.4-67.3-22.2-137.1 13.1-157 83.5-20 70.4 24.3 151.9 99.9 177 75.7 25.2 147.3-18 158.7-91.1z"/>
					<path id="&lt;Compound Path&gt;" class="s4" d="m794.9 1327.6q-3 12.5-6 25c26 14.4 36.9 38 32.1 60-5 22.1-19.7 31.9-51.3 32-22.6 0.4-32.5 2.3-34.6 10.4-1.7 6.8 1.7 15.6 17.8 21.3 8.8 3.1 16.3 4.3 22.5 4.6 8.4 0.4 15.4 7.8 15.7 16.2 0.2 8.2-6.1 14.4-14.2 13.8-6.7-0.5-14.4-1.9-23.6-4.7q-2.7 10.7-5.3 21.5-12.3-4.4-24.7-8.9 3-11.6 5.9-23.1c-25.5-14.9-36.2-37.7-30.5-58.9 6.4-23.5 27.3-28.8 55.3-28.2 19.3 0.4 28.4-2.8 30.7-12.1 2.3-9.8-5.8-18.5-19.3-23.4-9.3-3.3-18.6-4.7-27-4.9-8.2-0.2-15.2-7.9-15-16.5q0-0.5 0-1c0.1-7.8 6-13.7 13.4-13.4 8.9 0.3 19.3 2.1 29.5 5.3q2.9-11.6 5.7-23.2 11.5 4.2 22.9 8.2z"/>
				</g>
			</g>
			<path id="&lt;Path&gt;" class="s7" d="m1074.1 744.8c-7-2.4-13.9-5-20.5-8.2-7.5-3.6-17.2-7.8-23.4-8.8-12.9-2-35.1-0.6-47.3 12.6-15.3 16.5-42.5 3-37 89.5 6.2 97.9 60.8 87.2 62.1 85.5 1.4-1.7 48.8-62.6 48.8-62.6 0 0 16.5 36.1 16.5 34.8 0-1.3 84.6-114.7 0.8-142.8z"/>
			<g id="&lt;Group&gt;">
				<path id="&lt;Path&gt;" class="s4" d="m1131.7 1390.2c-226.5 89.5-476.3 130.4-736.4 120.6q25.9 166 51.8 332c300.7 11.4 589.6-35.9 851.4-139.4q-83.4-156.6-166.8-313.2z"/>
				<path id="&lt;Path&gt;" class="s5" d="m422.5 1573.8q17 103.6 34 207.3c27.3 0.8 53.1 21 57.8 45.9 250.2 1.9 491.2-37.6 713.9-116.8-11.8-23.8-1.7-49.9 22.2-59.1q-51.3-98-102.6-196.1c-22.1 8.5-49.7-4.4-61.5-28.1-195.6 69.6-407.2 104.2-626.9 102.6 4.7 24.9-11.8 45-36.9 44.3z"/>
				<g id="&lt;Group&gt;">
					<path id="&lt;Path&gt;" class="s6" d="m963.3 1632c-25.2-61.4-92.5-99.7-151.8-89.5-59.2 10.3-93.8 66.1-76 128.8 17.7 62.6 87.4 107.7 154 96.2 66.7-11.5 99-74.2 73.8-135.5z"/>
					<path id="&lt;Compound Path&gt;" class="s4" d="m832.9 1560.1q3.6 10.8 7.1 21.7c25.5 0.6 44.3 14.4 50.9 33.4 6.5 19.1 0.3 32.7-22.7 45.7-16.3 9.7-22.6 15.2-20.4 22.2 1.9 6 8.4 11.4 22.8 9.3 7.8-1.2 13.8-3.4 18.5-5.7 6.2-3.1 14.7-0.3 18.8 6.2 3.9 6.2 2.2 13.6-4 16.4-5.1 2.4-11.4 4.5-19.4 6q3 9.4 6.1 18.8-11.1 1.7-22.1 3.3-3.2-10.2-6.4-20.3c-25.3-1.2-43.6-14.3-49.2-33.2-6.1-20.8 6.7-33.4 27.3-44.4 14.3-7.6 19.5-13.8 16.8-21.9-2.8-8.6-12.6-12-24.7-10.2-8.4 1.2-15.7 3.9-21.9 7.2-6.1 3.2-14.7 0.1-18.6-6.7q-0.2-0.3-0.4-0.7c-3.5-6.1-1.9-13.1 3.6-15.9 6.6-3.3 15-6.2 23.9-7.9q-3.2-10.2-6.4-20.3 10.2-1.5 20.4-3z"/>
					<path id="&lt;Path&gt;" class="s6" d="m1155.2 1569.3c-53.8 19.1-108.8 35.7-164.8 49.8q6.5 15.6 13 31.3c56.7-14.4 112.5-31.2 167.1-50.6q-7.6-15.3-15.3-30.5z"/>
				</g>
			</g>
			<g id="&lt;Group&gt;">
				<path id="&lt;Path&gt;" class="s8" d="m758.1 1755.2v81.1c0 13.1 146.2 23.8 326.5 23.8 180.4 0 326.6-10.7 326.6-23.8v-81.1z"/>
				<g id="&lt;Group&gt;">
					<path id="&lt;Path&gt;" class="s9" d="m994.4 1859.1v-103.9h-236.3v81.1c0 10.9 99.8 20 236.3 22.8z"/>
					<path id="&lt;Path&gt;" class="s9" d="m1005.4 1859.3c25.4 0.5 51.9 0.8 79.2 0.8 40.8 0 79.7-0.6 115.7-1.6v-103.3h-194.9z"/>
					<path id="&lt;Path&gt;" class="s9" d="m1213.4 1858.1c116.3-3.6 197.8-12 197.8-21.8v-81.1h-197.8z"/>
				</g>
				<path id="&lt;Path&gt;" class="s8" d="m1411.2 1754.4c0 13.1-146.2 23.7-326.6 23.7-180.3 0-326.5-10.6-326.5-23.7 0-13.1 146.2-23.7 326.5-23.7 180.4 0 326.6 10.6 326.6 23.7z"/>
				<path id="&lt;Path&gt;" class="s10" d="m1353.6 1754.4c0 9.1-120.4 16.4-269 16.4-148.5 0-268.9-7.3-268.9-16.4 0-9.1 120.4-16.5 268.9-16.5 148.6 0 269 7.4 269 16.5z"/>
			</g>
			<g id="&lt;Group&gt;">
				<path id="&lt;Path&gt;" class="s8" d="m702.2 1669.4v81.1c0 13.1 146.2 23.8 326.6 23.8 180.3 0 326.6-10.7 326.6-23.8v-81.1z"/>
				<g id="&lt;Group&gt;">
					<path id="&lt;Path&gt;" class="s9" d="m938.5 1773.3v-103.9h-236.3v81.1c0 10.9 99.8 20 236.3 22.8z"/>
					<path id="&lt;Path&gt;" class="s9" d="m949.5 1773.6c25.4 0.4 51.9 0.7 79.3 0.7 40.7 0 79.7-0.6 115.6-1.6v-103.3h-194.9z"/>
					<path id="&lt;Path&gt;" class="s9" d="m1157.5 1772.3c116.4-3.6 197.9-12 197.9-21.8v-81.1h-197.9z"/>
				</g>
				<path id="&lt;Path&gt;" class="s8" d="m1355.4 1668.6c0 13.1-146.3 23.7-326.6 23.7-180.4 0-326.6-10.6-326.6-23.7 0-13.1 146.2-23.7 326.6-23.7 180.3 0 326.6 10.6 326.6 23.7z"/>
				<path id="&lt;Path&gt;" class="s10" d="m1297.7 1668.6c0 9.1-120.4 16.4-268.9 16.4-148.6 0-269-7.3-269-16.4 0-9.1 120.4-16.5 269-16.5 148.5 0 268.9 7.4 268.9 16.5z"/>
			</g>
			<g id="&lt;Group&gt;">
				<path id="&lt;Path&gt;" class="s8" d="m739.4 1581.4v81.1c0 13.1 146.2 23.7 326.6 23.7 180.4 0 326.6-10.6 326.6-23.7v-81.1z"/>
				<g id="&lt;Group&gt;">
					<path id="&lt;Path&gt;" class="s9" d="m975.8 1685.3v-103.9h-236.4v81.1c0 10.8 99.9 19.9 236.4 22.8z"/>
					<path id="&lt;Path&gt;" class="s9" d="m986.8 1685.5c25.3 0.4 51.9 0.7 79.2 0.7 40.7 0 79.7-0.6 115.7-1.5v-103.3h-194.9z"/>
					<path id="&lt;Path&gt;" class="s9" d="m1194.7 1684.3c116.4-3.7 197.9-12.1 197.9-21.8v-81.1h-197.9z"/>
				</g>
				<path id="&lt;Path&gt;" class="s8" d="m1392.6 1580.5c0 13.1-146.2 23.7-326.6 23.7-180.4 0-326.6-10.6-326.6-23.7 0-13.1 146.2-23.7 326.6-23.7 180.4 0 326.6 10.6 326.6 23.7z"/>
				<path id="&lt;Path&gt;" class="s10" d="m1334.9 1580.5c0 9.1-120.4 16.5-268.9 16.5-148.5 0-268.9-7.4-268.9-16.5 0-9.1 120.4-16.4 268.9-16.4 148.5 0 268.9 7.3 268.9 16.4z"/>
			</g>
			<g id="&lt;Group&gt;">
				<path id="&lt;Path&gt;" class="s8" d="m702.2 1494.5v81.1c0 13.1 146.2 23.7 326.6 23.7 180.3 0 326.6-10.6 326.6-23.7v-81.1z"/>
				<g id="&lt;Group&gt;">
					<path id="&lt;Path&gt;" class="s9" d="m938.5 1598.4v-103.9h-236.3v81.1c0 10.8 99.8 20 236.3 22.8z"/>
					<path id="&lt;Path&gt;" class="s9" d="m949.5 1598.6c25.4 0.5 51.9 0.7 79.3 0.7 40.7 0 79.7-0.5 115.6-1.5v-103.3h-194.9z"/>
					<path id="&lt;Path&gt;" class="s9" d="m1157.5 1597.4c116.4-3.6 197.9-12 197.9-21.8v-81.1h-197.9z"/>
				</g>
				<path id="&lt;Path&gt;" class="s8" d="m1355.4 1493.6c0 13.2-146.3 23.8-326.6 23.8-180.4 0-326.6-10.6-326.6-23.8 0-13.1 146.2-23.7 326.6-23.7 180.3 0 326.6 10.6 326.6 23.7z"/>
				<path id="&lt;Path&gt;" class="s10" d="m1297.7 1493.6c0 9.1-120.4 16.5-268.9 16.5-148.6 0-269-7.4-269-16.5 0-9 120.4-16.4 269-16.4 148.5 0 268.9 7.4 268.9 16.4z"/>
			</g>
			<g id="&lt;Group&gt;">
				<path id="&lt;Path&gt;" class="s8" d="m2988.8 1748.3v78c0 12.6-140.6 22.8-314.1 22.8-173.4 0-314-10.2-314-22.8v-78z"/>
				<g id="&lt;Group&gt;">
					<path id="&lt;Path&gt;" class="s9" d="m2761.5 1848.2v-99.9h227.3v78c0 10.4-96 19.2-227.3 21.9z"/>
					<path id="&lt;Path&gt;" class="s9" d="m2751 1848.4c-24.4 0.5-50 0.7-76.3 0.7-39.1 0-76.6-0.5-111.2-1.5v-99.3h187.5z"/>
					<path id="&lt;Path&gt;" class="s9" d="m2550.9 1847.3c-111.9-3.5-190.2-11.6-190.2-21v-78h190.2z"/>
				</g>
				<path id="&lt;Path&gt;" class="s8" d="m2360.7 1747.5c0 12.6 140.6 22.8 314 22.8 173.5 0 314.1-10.2 314.1-22.8 0-12.6-140.6-22.8-314.1-22.8-173.4 0-314 10.2-314 22.8z"/>
				<path id="&lt;Path&gt;" class="s10" d="m2416.1 1747.5c0 8.7 115.8 15.8 258.6 15.8 142.9 0 258.7-7.1 258.7-15.8 0-8.8-115.8-15.8-258.7-15.8-142.8 0-258.6 7-258.6 15.8z"/>
			</g>
			<g id="&lt;Group&gt;">
				<path id="&lt;Path&gt;" class="s8" d="m3042.6 1665.8v78c0 12.6-140.7 22.8-314.1 22.8-173.5 0-314.1-10.2-314.1-22.8v-78z"/>
				<g id="&lt;Group&gt;">
					<path id="&lt;Path&gt;" class="s9" d="m2815.3 1765.7v-99.9h227.3v78c0 10.4-96.1 19.2-227.3 21.9z"/>
					<path id="&lt;Path&gt;" class="s9" d="m2804.7 1765.9c-24.4 0.5-49.9 0.7-76.2 0.7-39.2 0-76.7-0.5-111.2-1.5v-99.3h187.4z"/>
					<path id="&lt;Path&gt;" class="s9" d="m2604.7 1764.8c-111.9-3.5-190.3-11.6-190.3-21v-78h190.3z"/>
				</g>
				<path id="&lt;Path&gt;" class="s8" d="m2414.4 1665c0 12.6 140.6 22.8 314.1 22.8 173.4 0 314.1-10.2 314.1-22.8 0-12.6-140.7-22.8-314.1-22.8-173.5 0-314.1 10.2-314.1 22.8z"/>
				<path id="&lt;Path&gt;" class="s10" d="m2469.8 1665c0 8.7 115.8 15.8 258.7 15.8 142.8 0 258.6-7.1 258.6-15.8 0-8.8-115.8-15.8-258.6-15.8-142.9 0-258.7 7-258.7 15.8z"/>
			</g>
			<g id="&lt;Group&gt;">
				<path id="&lt;Path&gt;" class="s8" d="m3006.8 1581.1l-0.1 78c0 12.6-140.6 22.8-314 22.8-173.5 0-314.1-10.2-314.1-22.8v-78z"/>
				<g id="&lt;Group&gt;">
					<path id="&lt;Path&gt;" class="s9" d="m2779.5 1681v-99.9h227.3l-0.1 78c0 10.4-96 19.2-227.2 21.9z"/>
					<path id="&lt;Path&gt;" class="s9" d="m2768.9 1681.2c-24.4 0.5-49.9 0.7-76.2 0.7-39.2 0-76.7-0.5-111.2-1.5v-99.3h187.4z"/>
					<path id="&lt;Path&gt;" class="s9" d="m2568.9 1680.1c-111.9-3.5-190.3-11.6-190.3-21v-78h190.3z"/>
				</g>
				<path id="&lt;Path&gt;" class="s8" d="m2378.6 1580.3c0 12.6 140.6 22.8 314.1 22.8 173.4 0 314.1-10.2 314.1-22.8 0-12.6-140.7-22.8-314.1-22.8-173.5 0-314.1 10.2-314.1 22.8z"/>
				<path id="&lt;Path&gt;" class="s10" d="m2434 1580.3c0 8.7 115.8 15.8 258.7 15.8 142.8 0 258.6-7.1 258.6-15.8 0-8.8-115.8-15.8-258.6-15.8-142.9 0-258.7 7-258.7 15.8z"/>
			</g>
			<g id="&lt;Group&gt;">
				<path id="&lt;Path&gt;" class="s8" d="m3042.6 1497.6v77.9c0 12.6-140.7 22.9-314.1 22.9-173.5 0-314.1-10.3-314.1-22.9v-77.9z"/>
				<g id="&lt;Group&gt;">
					<path id="&lt;Path&gt;" class="s9" d="m2815.3 1597.5v-99.9h227.3v77.9c0 10.5-96.1 19.2-227.3 22z"/>
					<path id="&lt;Path&gt;" class="s9" d="m2804.7 1597.7c-24.4 0.4-49.9 0.7-76.2 0.7-39.2 0-76.7-0.6-111.2-1.5v-99.3h187.4z"/>
					<path id="&lt;Path&gt;" class="s9" d="m2604.7 1596.5c-111.9-3.5-190.3-11.5-190.3-21v-77.9h190.3z"/>
				</g>
				<path id="&lt;Path&gt;" class="s8" d="m2414.4 1496.7c0 12.7 140.6 22.9 314.1 22.9 173.4 0 314.1-10.2 314.1-22.9 0-12.6-140.7-22.8-314.1-22.8-173.5 0-314.1 10.2-314.1 22.8z"/>
				<path id="&lt;Path&gt;" class="s10" d="m2469.8 1496.7c0 8.8 115.8 15.9 258.7 15.9 142.8 0 258.6-7.1 258.6-15.9 0-8.7-115.8-15.8-258.6-15.8-142.9 0-258.7 7.1-258.7 15.8z"/>
			</g>
			<g id="&lt;Group&gt;">
				<path id="&lt;Path&gt;" class="s8" d="m3188.7 1402.8l-18.9 65.9c-3 10.6-124.3-14.7-270.8-56.7-146.6-42-262.9-84.7-259.8-95.3l18.8-65.9z"/>
				<g id="&lt;Group&gt;">
					<path id="&lt;Path&gt;" class="s9" d="m2972.5 1432.2l24.2-84.4 192 55-18.9 65.9c-2.5 8.8-85.8-7-197.3-36.5z"/>
					<path id="&lt;Path&gt;" class="s9" d="m2963.5 1429.8c-20.7-5.5-42.3-11.5-64.5-17.8-33.1-9.5-64.7-19-93.6-28.2l24-83.9 158.3 45.4z"/>
					<path id="&lt;Path&gt;" class="s9" d="m2794.8 1380.5c-93.7-30.1-157.9-55.8-155.6-63.8l18.8-65.9 160.8 46.1z"/>
				</g>
				<path id="&lt;Path&gt;" class="s8" d="m2658.2 1250.1c-3 10.7 113.3 53.3 259.8 95.3 146.6 42 267.8 67.4 270.9 56.7 3-10.6-113.3-53.3-259.8-95.2-146.6-42-267.8-67.4-270.9-56.8z"/>
				<path id="&lt;Path&gt;" class="s10" d="m2705.1 1263.6c-2.1 7.3 94 41.3 214.6 75.9 120.7 34.6 220.2 56.6 222.3 49.2 2.2-7.4-93.9-41.4-214.6-75.9-120.7-34.6-220.2-56.6-222.3-49.2z"/>
			</g>
			<g id="&lt;Group&gt;">
				<path id="&lt;Path&gt;" class="s8" d="m3017.1 949.5l20.1 65.5c3.2 10.6-112.3 55.4-258 100.1-145.7 44.7-266.5 72.3-269.8 61.7l-20-65.5z"/>
				<g id="&lt;Group&gt;">
					<path id="&lt;Path&gt;" class="s9" d="m2851.9 1092l-25.8-83.9 191-58.6 20.1 65.5c2.7 8.8-75.8 40.9-185.3 77z"/>
					<path id="&lt;Path&gt;" class="s9" d="m2843 1094.9c-20.4 6.7-41.7 13.4-63.8 20.2-32.9 10.1-64.5 19.3-93.8 27.4l-25.6-83.4 157.4-48.3z"/>
					<path id="&lt;Path&gt;" class="s9" d="m2674.7 1145.5c-94.9 25.9-162.8 39.3-165.3 31.3l-20-65.5 159.8-49z"/>
				</g>
				<path id="&lt;Path&gt;" class="s8" d="m2489.1 1110.6c3.3 10.6 124.1-17 269.8-61.7 145.7-44.7 261.2-89.5 258-100.1-3.3-10.6-124 17.1-269.8 61.8-145.7 44.6-261.2 89.5-258 100z"/>
				<path id="&lt;Path&gt;" class="s10" d="m2535.7 1096.4c2.3 7.3 101.4-16.6 221.4-53.4 120-36.8 215.4-72.6 213.2-79.9-2.3-7.3-101.4 16.5-221.4 53.3-120 36.8-215.4 72.6-213.2 80z"/>
			</g>
			<path id="&lt;Path&gt;" class="s11" d="m1295.1 1764.5c0 0 7.7 41.2 7.7 41.3 0.5 5.3 0.3 18.9 1.5 23.6 4.3 17.6 78.4-25.2 59-28.7-1.8-0.3-14.5-13.2-17.4-18.6-5.1-9.5-9.8-27.2-9.8-27.2z"/>
			<path id="&lt;Path&gt;" class="s12" d="m1359.6 1798.2c0 0-19.1 4.7-28.9 5.7-9.7 0.9-22.2-14.2-29.2-11.3-7.6 3.1-11.8 51.1-11.8 51.1 0 0 122.2 5.6 151.1-2.4 11.4-3.2-43.2-28.6-81.2-43.1z"/>
			<path id="&lt;Path&gt;" class="s11" d="m1465.5 1762.6c0 0 7.7 41.2 7.7 41.3 0.5 5.3 0.3 18.9 1.5 23.6 4.3 17.6 77.1-22.4 57.6-25.8-1.7-0.3-13.1-16-16-21.5-5.1-9.5-9.8-27.2-9.8-27.2z"/>
			<path id="&lt;Path&gt;" class="s12" d="m1528.1 1798.2c0 0-19.1 4.7-28.8 5.7-9.8 0.9-22.3-14.2-29.2-11.3-7.7 3.1-11.9 51.1-11.9 51.1 0 0 122.2 5.6 151.1-2.4 11.4-3.2-43.1-28.6-81.2-43.1z"/>
			<path id="&lt;Path&gt;" class="s7" d="m1041.7 1350.2l222.4-51.5c0 0 99.7-26.4 123.7 4.5 24.1 31 126.3 458 126.3 458 0 0-52.7 4.6-56.1 2.3l-123.4-219c-11.8-20.8-19.5-43.7-22.8-67.4l-8.8-62.7-90.5 26.4c0 0-104.3 22.9-146.7-3.5-42.4-26.3-24.1-87.1-24.1-87.1z"/>
			<path id="&lt;Path&gt;" class="s9" d="m1127.1 966.9c3.5 0.2 13.2 3.4 27.2 29.9 18 33.8 44.3 136.1 44.3 136.1l-78.4 29.1-10.1-21.4-16.6-164.3c0 0 32.6-9.4 33.6-9.4z"/>
			<path id="&lt;Path&gt;" class="s10" d="m1023.5 952.2c22.4 0 77.9 6.5 103.6 14.7 0 0 18.9 162-17 285.1-8.1 27.6 6.6 114.3 6.6 114.3l-232.3-3.1c0 0 27.6-209.5 17.2-243.4-10.4-33.8-10.6-151.8-10.6-151.8 0 0 1.6-0.2 52.2-8.9 23.6-4.1 56.4-6.9 80.3-6.9z"/>
			<path id="&lt;Path&gt;" class="s11" d="m888.5 986c21.7-8.1 32.3 186.9 35.2 267.2 38.5 3.7 105.5 0.1 122.2-1.2 7.9-0.6 26-7.2 33.8-8.2 8-1.1 15.2-1.6 19.2-0.9 1.4 0.2 41.5 16.6 44.9 20.2 4.3 4.4 15.8 15.6 13.8 20.5-1.9 4.8-22.1-13.5-22.1-13.5l-9.8-5.6c12.3 12 35.7 27.7 32.3 33.5-3.3 5.5-24.4-10.4-39.5-21.3 12.9 11.6 29 32.4 25.3 35.6-3.3 3-21.6-21.1-41.1-28-7.2-2.6-14.4 4.5-20.1 5.4-4.2 0.6-10.6 1.9-14.7 0.8l-19.6-1.9c-7.2 0.6-8.9 0.8-16.2 2.3-8.4 1.8-22.2 3.7-32.9 6.3-61.9 15.1-82.5 22.1-101.4 22.1-57.4-0.1-60.7-314.1-9.3-333.3z"/>
			<path id="&lt;Path&gt;" class="s9" d="m847.2 1169.1c-4-82.2-3.4-183.5 42.8-200.8 18.3-6.9 50.4 34.2 44.7 202.5-24.7 2-61 3.7-87.5-1.7z"/>
			<path id="&lt;Path&gt;" class="s12" d="m1362.4 1118.9l-218.9 14.3c-5.8 0.4-10.7 4.2-12.6 9.7l-56.6 168.8-120.7 7.8c-3.4 0.3-5.9 3.2-5.7 6.5 0.2 3.4 3.1 6 6.5 5.8l343.4-22.5c9.4-0.6 17.6-6.7 21-15.6l57.9-155.5c3.7-9.8-4-20-14.3-19.3z"/>
			<g id="&lt;Group&gt;">
				<path id="&lt;Path&gt;" class="s13" d="m1253.3 1223.2c-0.4 7.5-6.1 13.3-12.7 12.9-6.6-0.4-11.6-6.8-11.1-14.3 0.4-7.5 6.1-13.3 12.7-13 6.6 0.4 11.6 6.8 11.1 14.4z"/>
			</g>
			<path id="&lt;Path&gt;" class="s14" d="m884.6 1357.9l242.3-41.8c0 0 104.7-16 128.8 15 24 30.9 94 432 94 432 0 0-52.8 4.6-56.2 2.3-2.7-1.8-66.5-135.5-95.2-195.7-9.1-19.1-15.5-39.4-19-60.3l-9.2-54.6-30.5 10.5c-53.6 18.4-110.6 24.8-166.9 17.9-23.5-3-45.5-8-59.1-16.5-42.4-26.3-29-108.8-29-108.8z"/>
			<path id="&lt;Path&gt;" class="s11" d="m1032.6 922.6l4.7 35c0 0 10.6 50.4-3 60.1-13.6 9.8-57.8-61.5-57.8-61.5l4.7-88.7z"/>
			<path id="&lt;Path&gt;" class="s12" d="m979.7 896.3c11.2 30.2 37.9 48.8 56.9 56l-4-29.7-51.4-55.1z"/>
			<path id="&lt;Path&gt;" class="s11" d="m1029.8 771.1c28.8-4.7 54.7 18.4 53.9 47.1-0.3 12.5-1.3 28.1-3.9 44.9-6.3 40.4-33.9 76-52.2 72.8-18.3-3.2-64.3-38-56.2-95.5 5-35.5 28.2-64.5 58.4-69.3z"/>
			<path id="&lt;Path&gt;" class="s11" d="m984.1 847.3c-1.5 8.8-8.7 15-15.9 13.8-7.3-1.3-11.9-9.5-10.4-18.4 1.6-8.9 8.7-15.1 16-13.8 7.2 1.3 11.9 9.5 10.3 18.4z"/>
			<path id="&lt;Path&gt;" class="s7" d="m973.8 828.9c0 0 22.1 5.5 30.3-8.7 8.2-14.2 37.5-44.7 74.8-32.1 37.3 12.7-32.8-30.8-35.8-30.8-3 0-38.8-0.2-38.8-0.2 0 0-27.6 22.6-28.6 25.1-1 2.5-8.9 29.6-8.9 29.6z"/>
			<g id="&lt;Group&gt;">
				<path id="&lt;Path&gt;" class="s6" d="m2056.9 1845.6h550.2v-200.3h-550.2z"/>
				<g id="&lt;Group&gt;">
					<path id="&lt;Path&gt;" class="s5" d="m2056.9 1700.2h550.2v-25.7h-550.2z"/>
					<path id="&lt;Path&gt;" class="s5" d="m2056.9 1750.6h550.2v-25.8h-550.2z"/>
					<path id="&lt;Path&gt;" class="s5" d="m2056.9 1800.9h550.2v-25.8h-550.2z"/>
					<path id="&lt;Path&gt;" class="s5" d="m2056.9 1845.6h550.2v-25.8h-550.2z"/>
					<path id="&lt;Path&gt;" class="s10" d="m2261.7 1845.6h114.4v-200.3h-114.4z"/>
				</g>
				<path id="&lt;Path&gt;" class="s4" d="m2600.4 1845.6h83.1v-200.3h-83.1z"/>
			</g>
			<path id="&lt;Path&gt;" class="s7" d="m3218.5 1842.7h-3040.4v17.4h3040.4z"/>
			<path id="&lt;Path&gt;" class="s15" d="m1469.6 339.2c-5.6-24.3-27.3-42.4-53.2-42.4-4.8 0-9.4 0.6-13.8 1.8-12.8-27.4-40.6-46.4-72.9-46.4-8.3 0-16.3 1.3-23.9 3.6-17.3-28.7-48.9-47.9-84.9-47.9-42.8 0-79.3 27.2-93.1 65.2-9.8-5.4-21.1-8.5-33.1-8.5-37.5 0-68 30.4-68 68q0 3.3 0.4 6.6z"/>
			<path id="&lt;Path&gt;" class="s15" d="m1669 609c-4.2-18.3-20.6-32-40.3-32-3.6 0-7.1 0.4-10.4 1.3-9.7-20.7-30.7-35.1-55.1-35.1-6.3 0-12.4 1-18.1 2.8-13.2-21.8-37-36.3-64.3-36.3-32.4 0-60 20.6-70.5 49.4-7.4-4.2-15.9-6.5-25-6.5-28.4 0-51.4 23-51.4 51.4q0 2.6 0.2 5z"/>
			<path id="&lt;Path&gt;" class="s15" d="m736.5 571.1c3.6-16 18-28 35.1-28 3.1 0 6.2 0.5 9.1 1.2 8.4-18.1 26.8-30.6 48-30.6 5.5 0 10.8 0.9 15.8 2.4 11.5-19 32.3-31.6 56-31.6 28.3 0 52.4 17.9 61.5 43 6.5-3.6 13.9-5.6 21.8-5.6 24.8 0 44.9 20.1 44.9 44.8q0 2.2-0.2 4.4z"/>
			<g id="&lt;Group&gt;">
				<path id="&lt;Path&gt;" class="s6" d="m1354.7 799.5l3.9 47.5 27.5-31.1 89.2-73-76 24c0 0-37.5 18.2-39.2 20.6-1.7 2.4-5.4 12-5.4 12z"/>
				<path id="&lt;Path&gt;" class="s5" d="m1314.3 779.1l161-36.2-120.6 56.6z"/>
				<path id="&lt;Path&gt;" class="s5" d="m1416.6 834.7l-49.6-24.8 108.3-67z"/>
			</g>
			<g id="&lt;Group&gt;">
				<g id="&lt;Group&gt;">
					<path id="&lt;Path&gt;" class="s4" d="m1335.9 825.9c7.4-2.8 12.9-3.4 13-3.4l-0.4-3.5c-0.3 0-6 0.7-13.8 3.6z"/>
				</g>
				<g id="&lt;Group&gt;">
					<path id="&lt;Compound Path&gt;" class="s4" d="m1256.4 1106.3c6.6-5.9 12.4-12.4 17.5-19.1l2.8 2.1c-5.2 6.9-11.2 13.5-17.9 19.6zm30.8-41.2c1.7-3.5 3.3-7.3 4.7-11 1.6-4.3 2.9-8.8 4.1-13.3l3.4 0.9c-1.2 4.6-2.6 9.2-4.3 13.6-1.4 3.8-3 7.6-4.7 11.3zm14-75.8l3.4-0.1c0.3 9.4 0 18-0.8 26.4l-3.5-0.3c0.8-8.3 1.1-16.8 0.9-26zm-5-52l3.5-0.5c1.4 10.1 2.5 18.4 3.2 26.1l-3.4 0.3c-0.8-7.6-1.8-15.8-3.3-25.9zm-3.8-26.2c-1.4-9.3-1.9-18.2-1.4-26.3l3.5 0.2c-0.5 7.9-0.1 16.5 1.3 25.6v0.2l-3.4 0.5zm4.3-52.4c3.5-8.5 8.6-16 15.1-22.1l2.4 2.5c-6.2 5.8-10.9 12.8-14.2 20.9z"/>
				</g>
			</g>
		</g>
	</g>
</svg>